<mxfile host="app.diagrams.net" modified="2022-08-31T03:24:36.534Z" agent="5.0 (Windows NT 10.0; Win64; x64) AppleWebKit/537.36 (KHTML, like Gecko) Chrome/104.0.5112.102 Safari/537.36 Edg/104.0.1293.70" etag="CLAHPvOX-_zUwtAWAdmQ" version="20.2.7" type="github">
  <diagram id="yfcuIuZcvH_YpDsrTKK3" name="Page-1">
    <mxGraphModel dx="1944" dy="1574" grid="1" gridSize="10" guides="1" tooltips="1" connect="1" arrows="1" fold="1" page="1" pageScale="1" pageWidth="850" pageHeight="1100" math="0" shadow="0">
      <root>
        <mxCell id="0" />
        <mxCell id="1" parent="0" />
        <mxCell id="nITwkLrifg8YcXNpEAJV-4" value="" style="edgeStyle=orthogonalEdgeStyle;rounded=0;orthogonalLoop=1;jettySize=auto;html=1;" edge="1" parent="1" source="nITwkLrifg8YcXNpEAJV-1" target="nITwkLrifg8YcXNpEAJV-3">
          <mxGeometry relative="1" as="geometry" />
        </mxCell>
        <mxCell id="nITwkLrifg8YcXNpEAJV-1" value="Source Code" style="rounded=0;whiteSpace=wrap;html=1;" vertex="1" parent="1">
          <mxGeometry x="100" y="510" width="120" height="60" as="geometry" />
        </mxCell>
        <mxCell id="nITwkLrifg8YcXNpEAJV-6" value="" style="edgeStyle=orthogonalEdgeStyle;rounded=0;orthogonalLoop=1;jettySize=auto;html=1;" edge="1" parent="1" source="nITwkLrifg8YcXNpEAJV-3" target="nITwkLrifg8YcXNpEAJV-5">
          <mxGeometry relative="1" as="geometry" />
        </mxCell>
        <mxCell id="nITwkLrifg8YcXNpEAJV-3" value="Source Repository" style="rounded=0;whiteSpace=wrap;html=1;" vertex="1" parent="1">
          <mxGeometry x="270" y="510" width="120" height="60" as="geometry" />
        </mxCell>
        <mxCell id="nITwkLrifg8YcXNpEAJV-8" value="" style="edgeStyle=orthogonalEdgeStyle;rounded=0;orthogonalLoop=1;jettySize=auto;html=1;" edge="1" parent="1" source="nITwkLrifg8YcXNpEAJV-5" target="nITwkLrifg8YcXNpEAJV-7">
          <mxGeometry relative="1" as="geometry" />
        </mxCell>
        <mxCell id="nITwkLrifg8YcXNpEAJV-5" value="CI" style="rounded=0;whiteSpace=wrap;html=1;" vertex="1" parent="1">
          <mxGeometry x="440" y="510" width="120" height="60" as="geometry" />
        </mxCell>
        <mxCell id="nITwkLrifg8YcXNpEAJV-7" value="Development Enviroment" style="rounded=0;whiteSpace=wrap;html=1;" vertex="1" parent="1">
          <mxGeometry x="610" y="510" width="120" height="60" as="geometry" />
        </mxCell>
        <mxCell id="nITwkLrifg8YcXNpEAJV-9" value="Datasets" style="rounded=0;whiteSpace=wrap;html=1;" vertex="1" parent="1">
          <mxGeometry x="610" y="610" width="120" height="60" as="geometry" />
        </mxCell>
        <mxCell id="nITwkLrifg8YcXNpEAJV-10" value="Model Training" style="rounded=0;whiteSpace=wrap;html=1;" vertex="1" parent="1">
          <mxGeometry x="870" y="510" width="120" height="60" as="geometry" />
        </mxCell>
        <mxCell id="nITwkLrifg8YcXNpEAJV-11" value="Model Validation" style="rounded=0;whiteSpace=wrap;html=1;" vertex="1" parent="1">
          <mxGeometry x="870" y="610" width="120" height="60" as="geometry" />
        </mxCell>
        <mxCell id="nITwkLrifg8YcXNpEAJV-12" value="Model Evaluation" style="rounded=0;whiteSpace=wrap;html=1;" vertex="1" parent="1">
          <mxGeometry x="870" y="410" width="120" height="60" as="geometry" />
        </mxCell>
        <mxCell id="nITwkLrifg8YcXNpEAJV-17" value="" style="edgeStyle=orthogonalEdgeStyle;rounded=0;orthogonalLoop=1;jettySize=auto;html=1;" edge="1" parent="1" source="nITwkLrifg8YcXNpEAJV-13" target="nITwkLrifg8YcXNpEAJV-16">
          <mxGeometry relative="1" as="geometry" />
        </mxCell>
        <mxCell id="nITwkLrifg8YcXNpEAJV-13" value="" style="rounded=0;whiteSpace=wrap;html=1;fillColor=none;" vertex="1" parent="1">
          <mxGeometry x="850" y="390" width="160" height="300" as="geometry" />
        </mxCell>
        <mxCell id="nITwkLrifg8YcXNpEAJV-14" value="" style="endArrow=classic;html=1;rounded=0;exitX=1;exitY=0.5;exitDx=0;exitDy=0;" edge="1" parent="1" source="nITwkLrifg8YcXNpEAJV-7">
          <mxGeometry width="50" height="50" relative="1" as="geometry">
            <mxPoint x="400" y="830" as="sourcePoint" />
            <mxPoint x="850" y="540" as="targetPoint" />
          </mxGeometry>
        </mxCell>
        <mxCell id="nITwkLrifg8YcXNpEAJV-15" value="" style="endArrow=classic;html=1;rounded=0;exitX=1;exitY=0.5;exitDx=0;exitDy=0;" edge="1" parent="1" source="nITwkLrifg8YcXNpEAJV-9">
          <mxGeometry width="50" height="50" relative="1" as="geometry">
            <mxPoint x="740" y="550" as="sourcePoint" />
            <mxPoint x="850" y="640" as="targetPoint" />
          </mxGeometry>
        </mxCell>
        <mxCell id="nITwkLrifg8YcXNpEAJV-19" value="" style="edgeStyle=orthogonalEdgeStyle;rounded=0;orthogonalLoop=1;jettySize=auto;html=1;" edge="1" parent="1" source="nITwkLrifg8YcXNpEAJV-16" target="nITwkLrifg8YcXNpEAJV-18">
          <mxGeometry relative="1" as="geometry" />
        </mxCell>
        <mxCell id="nITwkLrifg8YcXNpEAJV-16" value="Trained Models" style="rounded=0;whiteSpace=wrap;html=1;" vertex="1" parent="1">
          <mxGeometry x="1070" y="510" width="120" height="60" as="geometry" />
        </mxCell>
        <mxCell id="nITwkLrifg8YcXNpEAJV-25" value="" style="edgeStyle=orthogonalEdgeStyle;rounded=0;orthogonalLoop=1;jettySize=auto;html=1;" edge="1" parent="1" source="nITwkLrifg8YcXNpEAJV-18" target="nITwkLrifg8YcXNpEAJV-24">
          <mxGeometry relative="1" as="geometry" />
        </mxCell>
        <mxCell id="nITwkLrifg8YcXNpEAJV-18" value="Model Serving API" style="rounded=0;whiteSpace=wrap;html=1;" vertex="1" parent="1">
          <mxGeometry x="1250" y="510" width="120" height="60" as="geometry" />
        </mxCell>
        <mxCell id="nITwkLrifg8YcXNpEAJV-20" value="Model Registry" style="rounded=0;whiteSpace=wrap;html=1;" vertex="1" parent="1">
          <mxGeometry x="1250" y="610" width="120" height="60" as="geometry" />
        </mxCell>
        <mxCell id="nITwkLrifg8YcXNpEAJV-21" value="" style="edgeStyle=orthogonalEdgeStyle;rounded=0;orthogonalLoop=1;jettySize=auto;html=1;exitX=1;exitY=0.5;exitDx=0;exitDy=0;entryX=0;entryY=0.5;entryDx=0;entryDy=0;" edge="1" parent="1" source="nITwkLrifg8YcXNpEAJV-16" target="nITwkLrifg8YcXNpEAJV-20">
          <mxGeometry relative="1" as="geometry">
            <mxPoint x="1180" y="630" as="sourcePoint" />
            <mxPoint x="1080" y="550" as="targetPoint" />
          </mxGeometry>
        </mxCell>
        <mxCell id="nITwkLrifg8YcXNpEAJV-22" value="Tasks" style="rounded=0;whiteSpace=wrap;html=1;" vertex="1" parent="1">
          <mxGeometry x="610" y="410" width="120" height="60" as="geometry" />
        </mxCell>
        <mxCell id="nITwkLrifg8YcXNpEAJV-23" value="" style="endArrow=classic;html=1;rounded=0;exitX=1;exitY=0.5;exitDx=0;exitDy=0;entryX=0;entryY=0.167;entryDx=0;entryDy=0;entryPerimeter=0;" edge="1" parent="1" source="nITwkLrifg8YcXNpEAJV-22" target="nITwkLrifg8YcXNpEAJV-13">
          <mxGeometry width="50" height="50" relative="1" as="geometry">
            <mxPoint x="740" y="550" as="sourcePoint" />
            <mxPoint x="860" y="550" as="targetPoint" />
          </mxGeometry>
        </mxCell>
        <mxCell id="nITwkLrifg8YcXNpEAJV-24" value="API Monitering" style="rounded=0;whiteSpace=wrap;html=1;" vertex="1" parent="1">
          <mxGeometry x="1430" y="510" width="120" height="60" as="geometry" />
        </mxCell>
      </root>
    </mxGraphModel>
  </diagram>
</mxfile>
